# xmcd
#
# Track frame offsets: 
#        150
#        12477
#        21382
#        30015
#        40182
#        48995
#        59562
#        67807
#        78637
#        91497
#        103072
#        113422
#        124442
#
# Disc length: 1789 seconds
#
# Revision: 3
# Processed by: cddbd v1.4PL0 Copyright (c) Steve Scherf et al.
# Submitted via: ExactAudioCopy v0.90b4
#
DISCID=a506fb0d
DTITLE=Adriano Clentano - Meisterstücke
DYEAR=1900
DGENRE=
TTITLE0=Buona Sera Signorina
TTITLE1=il Tuo Bacio E´Come un rock
TTITLE2=Un´Ora Con Te
TTITLE3=24.000 Baci
TTITLE4=Impazzivo Per Te
TTITLE5=Nessuno Credera
TTITLE6=Movimento Di Rock
TTITLE7=Non Esser Timida
TTITLE8=Si E´Spento il Sole
TTITLE9=Ciao Ti Diro
TTITLE10=Il Rebelle
TTITLE11=La Mezza Luna
TTITLE12=Non Estiste Lámor
EXTD=
EXTT0=
EXTT1=
EXTT2=
EXTT3=
EXTT4=
EXTT5=
EXTT6=
EXTT7=
EXTT8=
EXTT9=
EXTT10=
EXTT11=
EXTT12=
PLAYORDER=
